<svg xmlns="http://www.w3.org/2000/svg" data-name="Layer 1" viewBox="0 0 48 60" x="0px" y="0px"><title>3-reuse</title><g data-name="Group"><path data-name="Path" d="M24.07,39a14.9,14.9,0,0,1-14-9.73l4.37-2.52L0,18.39V35.1L3.62,33A22.31,22.31,0,0,0,45.5,30.3l-6.71-3.87A14.94,14.94,0,0,1,24.07,39Z"/><path data-name="Path" d="M44.38,15A22.31,22.31,0,0,0,2.5,17.7l6.71,3.87A14.9,14.9,0,0,1,37.9,18.73l-4.37,2.52L48,29.61V12.9Z"/></g><text x="0" y="63" fill="#000000" font-size="5px" font-weight="bold" font-family="'Helvetica Neue', Helvetica, Arial-Unicode, Arial, Sans-serif">Created by tulpahn</text><text x="0" y="68" fill="#000000" font-size="5px" font-weight="bold" font-family="'Helvetica Neue', Helvetica, Arial-Unicode, Arial, Sans-serif">from the Noun Project</text></svg>