<svg xmlns="http://www.w3.org/2000/svg" viewBox="0 0 32 75" x="0px" y="0px"><title>Asset 1</title><g data-name="Layer 2"><g data-name="Layer 2"><path d="M27.19,60H4.81A4.82,4.82,0,0,1,0,55.19V4.81A4.82,4.82,0,0,1,4.81,0H27.19A4.82,4.82,0,0,1,32,4.81V55.19A4.82,4.82,0,0,1,27.19,60ZM4.81,2A2.81,2.81,0,0,0,2,4.81V55.19A2.81,2.81,0,0,0,4.81,58H27.19A2.81,2.81,0,0,0,30,55.19V4.81A2.81,2.81,0,0,0,27.19,2Z"/><path d="M18,56H14a3,3,0,0,1,0-6h4a3,3,0,0,1,0,6Zm-4-4a1,1,0,0,0,0,2h4a1,1,0,0,0,0-2Z"/><path d="M24,6H8A1,1,0,0,1,8,4H24a1,1,0,0,1,0,2Z"/></g></g><text x="0" y="75" fill="#000000" font-size="5px" font-weight="bold" font-family="'Helvetica Neue', Helvetica, Arial-Unicode, Arial, Sans-serif">Created by Taylan Sentürk</text><text x="0" y="80" fill="#000000" font-size="5px" font-weight="bold" font-family="'Helvetica Neue', Helvetica, Arial-Unicode, Arial, Sans-serif">from the Noun Project</text></svg>