<svg xmlns:dc="http://purl.org/dc/elements/1.1/" xmlns:cc="http://creativecommons.org/ns#" xmlns:rdf="http://www.w3.org/1999/02/22-rdf-syntax-ns#" xmlns:svg="http://www.w3.org/2000/svg" xmlns="http://www.w3.org/2000/svg" xmlns:sodipodi="http://sodipodi.sourceforge.net/DTD/sodipodi-0.dtd" xmlns:inkscape="http://www.inkscape.org/namespaces/inkscape" viewBox="0 0 1039.2672 1385.907625" version="1.1" x="0px" y="0px"><g transform="translate(6284.567,-1322.4241)"><path style="" d="m -5878.942,2430.9593 c -153.653,-6.6061 -279.9646,-48.8922 -352.3137,-117.9462 -18.0378,-17.2163 -39.6398,-45.1387 -47.833,-61.8282 l -5.4783,-11.1592 0.1054,-131.9658 c 0.1045,-130.8886 0.1241,-131.883 2.3945,-121.8372 6.3448,28.073 24.3507,57.8441 49.2258,81.3905 16.6702,15.7798 53.0748,39.7447 83.2743,54.819 51.1827,25.5483 113.8679,44.2198 181.875,54.1735 39.9832,5.8521 56.304,6.8627 111.875,6.927 29.2187,0.034 57.2031,-0.3643 62.1875,-0.8847 l 9.0625,-0.9462 0,3.922 c 0,5.8966 3.5818,27.6106 6.882,41.7204 15.3772,65.7446 55.3877,127.4707 109.6349,169.1392 l 12.5108,9.6098 -16.7014,4.0997 c -35.811,8.7906 -83.6807,16.1617 -122.9513,18.9323 -19.9237,1.4057 -68.8129,2.4763 -83.75,1.8341 z m 365.625,-40.4721 c -57.8784,-7.5572 -112.837,-37.1764 -150.7775,-81.2597 -27.3298,-31.7545 -44.8343,-67.4047 -53.8577,-109.6884 -3.1772,-14.8879 -3.4027,-17.975 -3.4027,-46.5699 0,-28.5949 0.2255,-31.682 3.4027,-46.5699 20.6052,-96.5552 91.5101,-167.4601 188.0653,-188.0653 14.8879,-3.1772 17.975,-3.4027 46.5699,-3.4027 28.5949,0 31.682,0.2255 46.5699,3.4027 42.2836,9.0234 77.9339,26.5279 109.6884,53.8577 39.8275,34.2777 66.231,79.2531 78.2426,133.2775 3.2808,14.756 3.4762,17.3631 3.5129,46.875 0.036,29.381 -0.1651,32.2036 -3.3712,47.1949 -20.6004,96.3244 -91.7601,167.6603 -187.4315,187.8955 -13.1633,2.7842 -19.1438,3.3054 -42.2111,3.6786 -14.7812,0.2392 -30.5312,-0.043 -35,-0.626 z m 74.068,-150.3249 44.068,44.0549 21.556,-21.556 21.556,-21.556 -44.0549,-44.068 -44.0549,-44.068 44.0549,-44.068 44.0549,-44.068 -21.556,-21.556 -21.556,-21.556 -44.068,44.0549 -44.068,44.0549 -44.068,-44.0549 -44.068,-44.0549 -21.556,21.556 -21.556,21.556 44.0549,44.068 44.0549,44.068 -44.0549,44.068 -44.0549,44.068 21.556,21.556 21.556,21.556 44.068,-44.0549 44.068,-44.0549 44.068,44.0549 z m -439.693,-136.7896 c -123.2151,-4.2307 -236.1591,-35.3018 -311.875,-85.7976 -41.011,-27.3506 -68.3821,-57.9088 -88.0166,-98.2652 l -5.7334,-11.7842 0.1054,-129.4658 c 0.1046,-128.4651 0.1231,-129.3874 2.3945,-119.3372 4.643,20.5431 15.9761,42.8849 31.6387,62.3715 9.114,11.3392 23.8632,25.6855 32.1276,31.25 3.0632,2.0625 10.3596,7.1594 16.2141,11.3265 58.9599,41.9654 140.5283,71.6964 234.3947,85.435 41.0213,6.0041 55.997,6.9086 114.375,6.9086 44.1002,0 59.8982,-0.4503 76.25,-2.1736 113.857,-11.9991 202.4727,-41.356 273.125,-90.4818 17.6019,-12.2389 21.5618,-15.3337 31.5223,-24.6358 23.1689,-21.6371 41.642,-52.5207 47.8528,-80.0004 2.2832,-10.1023 2.2894,-9.8547 2.3945,95.5886 l 0.1054,105.7171 -14.0625,-2.4766 c -19.9591,-3.5152 -71.531,-3.7522 -91.5625,-0.4209 -58.5399,9.7353 -107.0881,31.6808 -150.625,68.0875 -49.1865,41.1311 -85.8533,100.9316 -99.9174,162.9568 l -2.7393,12.081 -5.8591,0.7517 c -8.8545,1.136 -59.4012,3.2204 -71.4842,2.9479 -5.8437,-0.1319 -15.125,-0.3942 -20.625,-0.5831 z m -23.75,-327.4462 c -22.5822,-1.7443 -49.97,-4.617 -64.9816,-6.816 -68.0658,-9.9704 -130.702,-28.6268 -181.8934,-54.1776 -71.1729,-35.524 -114.4124,-79.2737 -131.2614,-132.8102 -3.8762,-12.3165 -4.8739,-41.8848 -1.9115,-56.6535 18.7082,-93.2682 143.6459,-171.0496 315.0479,-196.1365 41.0214,-6.0041 55.997,-6.9086 114.375,-6.9086 58.378,0 73.3537,0.9045 114.375,6.9086 68.0056,9.9535 130.6865,28.6235 181.875,54.1728 75.2857,37.5768 122.2839,87.6774 133.1729,141.9637 2.9624,14.7687 1.9647,44.337 -1.9115,56.6535 -8.4754,26.9299 -21.5074,48.3116 -43.0667,70.6597 -61.0497,63.2837 -171.3864,106.7461 -306.9447,120.9078 -18.3747,1.9196 -110.0546,3.5355 -126.875,2.2363 z" fill="#000000"/></g><text x="0" y="1123.7261" fill="#000000" font-size="5px" font-weight="bold" font-family="'Helvetica Neue', Helvetica, Arial-Unicode, Arial, Sans-serif">Created by iconeu</text><text x="0" y="1128.7261" fill="#000000" font-size="5px" font-weight="bold" font-family="'Helvetica Neue', Helvetica, Arial-Unicode, Arial, Sans-serif">from the Noun Project</text></svg>