<svg xmlns="http://www.w3.org/2000/svg" data-name="Layer 1" viewBox="0 0 100 125" x="0px" y="0px"><title>Artboard 22</title><path d="M86.43,62.5a6.22,6.22,0,0,0-2.68-2.93,5.05,5.05,0,0,0-1.2.79,5.84,5.84,0,0,0-.94.81c0,.82.19,1.77.27,2.8A13.44,13.44,0,0,1,81,70.31c-.36,1-.78,1.83-1,2.61a7.25,7.25,0,0,0,.83,1.22,4.24,4.24,0,0,0,.85.95A6.25,6.25,0,0,0,85,73,9.73,9.73,0,0,0,86.43,62.5Z"/><path d="M91.88,54.72c-.09-.07-.65.26-1.25.72s-.92.79-.9.88a54,54,0,0,1,1.53,5.25,19.78,19.78,0,0,1-1.86,13.55,53.4,53.4,0,0,1-2.89,4.64A3.72,3.72,0,0,0,87.3,81c.43.55.82.94.91.9a13.17,13.17,0,0,0,5.23-4.16A17.83,17.83,0,0,0,95.82,60.1,13.12,13.12,0,0,0,91.88,54.72Z"/><circle cx="58.57" cy="36.56" r="2.76"/><path d="M80.36,50.17l.31-.33c.13-.15.26-.3.37-.46a6.14,6.14,0,0,0,.3-6.77,5.93,5.93,0,0,0-1.68-1.78,16.38,16.38,0,0,0-1.44-.88l-1-.63-1-.71a12.39,12.39,0,0,1-4.58-8c-.06-.39-.09-.78-.11-1.17l-.14-1.56c-.12-1-.14-2.09-.35-3.12a29,29,0,0,0-4.72-11.9A24.17,24.17,0,0,0,56.11,4.62,36.14,36.14,0,0,0,43.63,1.78,46,46,0,0,0,31,2.66a38.83,38.83,0,0,0-11.8,4.67A34.76,34.76,0,0,0,9.76,15.7,32.61,32.61,0,0,0,4.1,26.88c-.24,1-.49,2-.71,3L3,33a33.21,33.21,0,0,0,0,6.09A34.44,34.44,0,0,0,6,50.55c.8,1.76,1.92,3.53,2.69,4.89.43.72.76,1.49,1.14,2.22s.66,1.52,1,2.28a36.09,36.09,0,0,1,2.24,9.37,33.54,33.54,0,0,1-2.93,17.55l0,.07a2.09,2.09,0,0,0,.6,2.53,32.36,32.36,0,0,0,2.86,2c.94.56,1.87,1.1,2.81,1.57s1.87.9,2.78,1.33,1.85.76,2.75,1.1A45.74,45.74,0,0,0,32.4,97.93a46.36,46.36,0,0,0,17.12-1h0a1.51,1.51,0,0,0,1.15-1.48c-.06-4.73-.12-7.08-.19-9.25a42.28,42.28,0,0,0,7.31.8c1.5,0,3,0,4.6-.11q1.17-.09,2.37-.24l1.2-.17c.21,0,.37-.05.63-.11l.75-.18A8.38,8.38,0,0,0,73.13,76L73,75.6v0h0a2.32,2.32,0,0,1,0-.3,7.59,7.59,0,0,1,.05-1c0-.35.1-.71.17-1s.19-.73.29-1.14a6.84,6.84,0,0,0,.2-.91,3.93,3.93,0,0,0-1.88-3.84,3.73,3.73,0,0,0-.71-.33l-.37-.11-.27-.06-.56-.12c-.37-.08-.73-.19-1.09-.3a7.88,7.88,0,0,1-3.51-2.14,5.26,5.26,0,0,1-.95-1.54l.68,0c1,0,2.05,0,3.08-.13s2.05-.23,3.08-.42a27.18,27.18,0,0,0,3.16-.77A2.39,2.39,0,0,0,76,59V59l-.24-5.86a13.34,13.34,0,0,0,3.93-2.32Q80,50.5,80.36,50.17ZM69.71,71.26h0ZM77,46a1,1,0,0,1-.15.34l-.06.08-.16.17-.35.34a9.69,9.69,0,0,1-3.82,1.94h0a2.5,2.5,0,0,0-1.81,2.54l.32,5.8-.72.15c-.87.17-1.75.31-2.63.4s-1.75.15-2.61.15h-.65c-.24,0-.3,0-1,0a4.33,4.33,0,0,0-2.77,1.33A4.41,4.41,0,0,0,59.47,62a4.47,4.47,0,0,0,.16,1.48,9.2,9.2,0,0,0,.32.9,10,10,0,0,0,1.91,3,12.4,12.4,0,0,0,5.6,3.35c.49.15,1,.27,1.47.37l.24,0c-.09.37-.18.72-.27,1.22s-.16,1-.2,1.48a11.66,11.66,0,0,0,0,1.56,6.15,6.15,0,0,0,.11,1v.1c0,.13-.07-.24.08.3v.05l0,.1.06.2a4.25,4.25,0,0,1-.35,3.17,4.32,4.32,0,0,1-2.4,2l-.39.1c-.12,0-.34.07-.51.11l-1.08.19q-1.08.17-2.15.29c-1.43.15-2.83.23-4.22.24A38,38,0,0,1,50,82.54a27.06,27.06,0,0,1-6.69-2.26,18.21,18.21,0,0,1-5-3.53,1.77,1.77,0,0,0-2.24-.5c-.55.42-.52,1.5.2,2.34A20.48,20.48,0,0,0,41.88,83a29,29,0,0,0,6,2.5,2.59,2.59,0,0,0-.07.53c-.06,2-.12,4.12-.17,8.07a44.63,44.63,0,0,1-14.76.1,43.21,43.21,0,0,1-9.54-2.59c-.83-.33-1.65-.7-2.5-1.07s-1.69-.79-2.51-1.28-1.68-1-2.51-1.48l-1.05-.71a37.73,37.73,0,0,0,3-18.22,40.5,40.5,0,0,0-2.36-10.7c-.34-.87-.69-1.74-1.07-2.6S13.6,53.87,13.13,53c-1-1.77-1.78-3.06-2.46-4.62a29.52,29.52,0,0,1-2.49-9.8,28.19,28.19,0,0,1,.07-5.18l.36-2.58.62-2.54A27.41,27.41,0,0,1,14,19a29.52,29.52,0,0,1,8-7A33.59,33.59,0,0,1,32.2,8a40.69,40.69,0,0,1,11.08-.75A30.91,30.91,0,0,1,53.9,9.63a18.75,18.75,0,0,1,8,6.38,23.78,23.78,0,0,1,3.87,9.7c.19.88.2,1.77.31,2.65l.13,1.32c0,.57.08,1.15.18,1.7A17.63,17.63,0,0,0,73,42.72c.44.33.88.64,1.33,1l1.38.83c.45.25.77.42,1,.56a1,1,0,0,1,.25.21A1,1,0,0,1,77,46Z"/><text x="0" y="115" fill="#000000" font-size="5px" font-weight="bold" font-family="'Helvetica Neue', Helvetica, Arial-Unicode, Arial, Sans-serif">Created by Gregor Cresnar</text><text x="0" y="120" fill="#000000" font-size="5px" font-weight="bold" font-family="'Helvetica Neue', Helvetica, Arial-Unicode, Arial, Sans-serif">from the Noun Project</text></svg>