<svg xmlns="http://www.w3.org/2000/svg" xmlns:xlink="http://www.w3.org/1999/xlink" version="1.1" x="0px" y="0px" viewBox="0 0 100 125" enable-background="new 0 0 100 100" xml:space="preserve"><path d="M49.961,81.656l27.416-15.828V34.171L49.961,18.344L22.545,34.171v31.657L49.961,81.656z M27.429,64.029l9.886-5.582  l12.653,7.304l12.627-7.288l9.771,5.641L49.961,77.037L27.429,64.029z M49.968,37.71l9.762,5.637l-9.625,5.54l-9.749-5.626  L49.968,37.71z M39.325,44.976l9.636,5.562v11.169l-9.636-5.562V44.976z M50.961,50.701l9.649-5.553v10.995l-9.649,5.57V50.701z   M73.377,62.377l-9.767-5.639V42.123l-12.566-7.256V23.588L73.377,36.48V62.377z M49.045,23.492v11.286l-12.72,7.345v14.585  l-9.78,5.522V36.48L49.045,23.492z"/><text x="0" y="115" fill="#000000" font-size="5px" font-weight="bold" font-family="'Helvetica Neue', Helvetica, Arial-Unicode, Arial, Sans-serif">Created by Pablo Rozenberg</text><text x="0" y="120" fill="#000000" font-size="5px" font-weight="bold" font-family="'Helvetica Neue', Helvetica, Arial-Unicode, Arial, Sans-serif">from the Noun Project</text></svg>