<svg xmlns="http://www.w3.org/2000/svg" xmlns:xlink="http://www.w3.org/1999/xlink" version="1.1" x="0px" y="0px" viewBox="0 0 24 30" enable-background="new 0 0 24 24" xml:space="preserve"><g><circle cx="4" cy="17" r="2"/><path d="M6,20H2c-1.104,0-2,0.896-2,2v2h8v-2C8,20.896,7.104,20,6,20z"/><circle cx="12" cy="2" r="2"/><circle cx="20" cy="17" r="2"/><path d="M22,20h-4c-1.104,0-2,0.896-2,2v2h8v-2C24,20.896,23.104,20,22,20z"/><path d="M19.001,13c0.209,0,0.419-0.065,0.599-0.2c0.442-0.331,0.532-0.958,0.2-1.4l-4.5-6C15.111,5.148,14.814,5,14.5,5h-5   C9.185,5,8.889,5.148,8.7,5.4l-4.5,6c-0.332,0.442-0.242,1.069,0.2,1.4c0.443,0.333,1.069,0.242,1.4-0.2L9,8.333V12h6V8.333   l3.2,4.267C18.396,12.862,18.696,13,19.001,13z"/><path d="M12,14c-0.552,0-1,0.447-1,1v9h2v-9C13,14.447,12.552,14,12,14z"/></g><text x="0" y="39" fill="#000000" font-size="5px" font-weight="bold" font-family="'Helvetica Neue', Helvetica, Arial-Unicode, Arial, Sans-serif">Created by Rflor</text><text x="0" y="44" fill="#000000" font-size="5px" font-weight="bold" font-family="'Helvetica Neue', Helvetica, Arial-Unicode, Arial, Sans-serif">from the Noun Project</text></svg>