<svg height='100px' width='100px'  fill="#000000" xmlns:x="http://ns.adobe.com/Extensibility/1.0/" xmlns:i="http://ns.adobe.com/AdobeIllustrator/10.0/" xmlns:graph="http://ns.adobe.com/Graphs/1.0/" xmlns="http://www.w3.org/2000/svg" xmlns:xlink="http://www.w3.org/1999/xlink" version="1.1" x="0px" y="0px" viewBox="0 0 100 100" enable-background="new 0 0 100 100" xml:space="preserve"><g><g i:extraneous="self"><g display="none"><path display="inline" fill="#000000" stroke="#000000" stroke-width="4" stroke-miterlimit="10" d="M14.6,2C7.6,2,2,7.7,2,14.6     v70.8C2,92.4,7.6,98,14.6,98h70.8C92.4,98,98,92.4,98,85.4V14.6C98,7.7,92.4,2,85.4,2H14.6z"></path><rect x="14" y="14" display="inline" fill="#000000" stroke="#000000" stroke-miterlimit="10" width="72" height="72"></rect></g><g><path fill="#000000" d="M62,43c0,5-4,9-9,9c-5,0-9-4-9-9s4-9,9-9C58,34,62,38,62,43"></path><rect x="49" y="66" fill="#000000" width="8" height="2"></rect><path fill="#000000" d="M57,70.4V70h-8v2h5.5C55.2,71.3,56,70.7,57,70.4z"></path><path fill="#000000" d="M49,74v2h4c0-0.7,0.1-1.4,0.4-2H49z"></path><path fill="#000000" d="M49,78v2h5.5c-0.5-0.6-0.9-1.3-1.2-2H49z"></path><path fill="#000000" d="M79.4,73.9L71.5,61c-2-3.7-5.8-5.9-9.9-5.9H44.8L35.2,51l-3.4-10.3c-0.7-2.1-3-3.2-5.1-2.5     c-2.1,0.7-3.2,3-2.5,5.1l4,12c0.4,1.1,1.2,2,2.2,2.4l9.6,4V86h25v-4h-6h0H47V64h12v6h6v-4.3l3.9,6.3H67h-2h-6h0c-2.2,0-4,1.8-4,4     c0,2.2,1.8,4,4,4h0h6h2h9c1.4,0,2.8-0.8,3.5-2C80.2,76.7,80.2,75.1,79.4,73.9z"></path><g><path fill="#000000" d="M30,33h-4c-0.6,0-1-0.4-1-1s0.4-1,1-1h4c0.6,0,1,0.4,1,1S30.6,33,30,33z"></path><path fill="#000000" d="M29,36h-2c-0.6,0-1-0.4-1-1s0.4-1,1-1h2c0.6,0,1,0.4,1,1S29.6,36,29,36z"></path><path fill="#000000" d="M34.5,20.5c0-3.6-2.9-6.5-6.5-6.5s-6.5,2.9-6.5,6.5c0,1.6,0.5,3,1.5,4.1h0c2.1,2.6,2,4.4,2,4.4      c0,0.6,0.4,1,1,1h4c0.6,0,1-0.4,1-1c0,0-0.1-1.8,2-4.4h0C34,23.5,34.5,22.1,34.5,20.5z"></path></g></g></g></g></svg>