<svg xmlns="http://www.w3.org/2000/svg" xmlns:xlink="http://www.w3.org/1999/xlink" version="1.1" x="0px" y="0px" viewBox="0 0 100 125" style="enable-background:new 0 0 100 100;" xml:space="preserve"><g><path d="M38.376,51.672c0,6.385,5.194,11.579,11.579,11.579s11.579-5.194,11.579-11.579c0-6.384-5.194-11.578-11.579-11.578   S38.376,45.288,38.376,51.672z M49.955,44.094c4.179,0,7.579,3.399,7.579,7.578s-3.4,7.579-7.579,7.579s-7.579-3.4-7.579-7.579   S45.776,44.094,49.955,44.094z"/><path d="M16.582,63.251c6.384,0,11.579-5.194,11.579-11.579c0-6.384-5.194-11.578-11.579-11.578S5.003,45.288,5.003,51.672   C5.003,58.057,10.198,63.251,16.582,63.251z M16.582,44.094c4.179,0,7.579,3.399,7.579,7.578s-3.4,7.579-7.579,7.579   s-7.579-3.4-7.579-7.579S12.403,44.094,16.582,44.094z"/><path d="M71.839,51.672c0,6.385,5.194,11.579,11.579,11.579s11.579-5.194,11.579-11.579c0-6.384-5.194-11.578-11.579-11.578   S71.839,45.288,71.839,51.672z M90.997,51.672c0,4.179-3.4,7.579-7.579,7.579s-7.579-3.4-7.579-7.579s3.4-7.578,7.579-7.578   S90.997,47.493,90.997,51.672z"/><path d="M88.158,64.842l-6.345-0.001c-0.001,0-0.003,0-0.004,0c-2.843,0-5.546,1.229-7.417,3.369l-5.237,5.994   c-0.721,0.826-1.736,1.311-2.819,1.402v-3.048c0-4.249-3.457-7.706-7.706-7.706c-0.001,0.001-0.871,0.001-1.128-0.005   c-0.568-0.033-1.137,0.164-1.553,0.581l-5.991,5.991l-2.287-2.285c-4.288-4.282-4.288-4.282-5.127-4.282h-1.249   c-4.26,0-7.725,3.457-7.725,7.706v3.038c-1.046-0.113-2.023-0.59-2.723-1.391l-5.237-5.994c-1.871-2.142-4.575-3.369-7.417-3.369   c-0.001,0-0.003,0-0.004,0l-6.345,0.001C8.07,64.842,5,67.907,5,71.676v18.23c0,1.104,0.896,2,2,2s2-0.896,2-2v-18.23   c0-1.563,1.275-2.834,2.843-2.834l6.346-0.001c0.001,0,0.001,0,0.002,0c1.688,0,3.294,0.729,4.406,2.002l5.237,5.994   c1.559,1.783,3.812,2.807,6.18,2.807h1.544c0.003,0,0.006,0.001,0.01,0.001s0.006-0.001,0.01-0.001h3.355   c0.841,0,1.525,0.684,1.525,1.524c0,0.821-0.653,1.488-1.466,1.519c-0.002,0-0.004,0-0.006,0.001   c-0.018,0.001-0.035,0.005-0.053,0.005h-8.441c-0.563,0-1.104-0.208-1.522-0.586l-5.875-5.301   c-0.819-0.739-2.084-0.675-2.825,0.146c-0.74,0.82-0.675,2.085,0.145,2.825l1.741,1.571v8.558c0,1.104,0.896,2,2,2s2-0.896,2-2   v-4.949l0.133,0.12c0.643,0.581,1.397,0.998,2.203,1.27v3.559c0,1.104,0.896,2,2,2s2-0.896,2-2v-3.213h6.441   c0.08,0,0.158-0.009,0.237-0.012c0.082,0.004,0.165,0.012,0.247,0.012h21.07c0.075,0,0.186-0.004,0.311-0.014   c0.09,0.004,0.178,0.014,0.269,0.014h6.441v3.213c0,1.104,0.896,2,2,2s2-0.896,2-2v-3.559c0.806-0.272,1.559-0.689,2.202-1.269   l0.134-0.121v4.949c0,1.104,0.896,2,2,2s2-0.896,2-2v-8.558l1.741-1.571c0.82-0.74,0.885-2.005,0.145-2.825   c-0.741-0.82-2.005-0.885-2.825-0.146l-5.875,5.302c-0.417,0.377-0.958,0.585-1.521,0.585h-8.441c-0.841,0-1.525-0.685-1.525-1.525   s0.684-1.524,1.525-1.524h3.258c0.003,0,0.006,0.001,0.01,0.001s0.006-0.001,0.01-0.001h1.641c2.369,0,4.621-1.023,6.18-2.807   l5.237-5.994c1.112-1.272,2.717-2.002,4.406-2.002c0.001,0,0.002,0,0.002,0l6.346,0.001c1.567,0,2.843,1.271,2.843,2.834v18.23   c0,1.104,0.896,2,2,2s2-0.896,2-2v-18.23C95,67.907,91.93,64.842,88.158,64.842z M55.542,81.168c0,0.53,0.079,1.041,0.219,1.526   l-11.523,0.002c0.14-0.486,0.22-0.998,0.22-1.528c0-3.046-2.479-5.524-5.525-5.524h-1.364v-3.086c0-2.044,1.671-3.706,3.725-3.706   h0.428c1.29,1.282,4.54,4.529,6.821,6.81c0.781,0.781,2.048,0.781,2.828,0l6.812-6.812c0.153,0.002,0.302,0.002,0.446,0.002   c2.043,0,3.706,1.662,3.706,3.706v3.086h-1.268C58.021,75.644,55.542,78.122,55.542,81.168z"/><path d="M80.9,3.69H59.29c-5.255,0-9.53,4.271-9.53,9.52v12.33c0,5.033,3.933,9.155,8.889,9.487l-0.838,3.066   c-0.205,0.751,0.043,1.552,0.638,2.055c0.368,0.312,0.828,0.473,1.292,0.473c0.285,0,0.571-0.061,0.84-0.186L72.19,35.06h8.71   c5.25,0,9.52-4.271,9.52-9.52V13.21C90.42,7.961,86.149,3.69,80.9,3.69z M86.42,25.54c0,3.044-2.476,5.52-5.52,5.52h-9.15   c-0.011,0-0.022,0.003-0.034,0.003c-0.069,0.001-0.137,0.013-0.206,0.021c-0.065,0.008-0.131,0.012-0.194,0.026   c-0.049,0.011-0.097,0.03-0.146,0.045c-0.08,0.024-0.16,0.047-0.235,0.081c-0.009,0.004-0.018,0.005-0.026,0.009l-8.106,3.753   l0.386-1.411c0.005-0.02,0.005-0.039,0.01-0.059c0.016-0.067,0.025-0.135,0.034-0.204c0.009-0.068,0.018-0.136,0.021-0.204   c0.001-0.021,0.006-0.04,0.006-0.06c0-0.042-0.01-0.081-0.012-0.122c-0.004-0.072-0.009-0.143-0.022-0.214   c-0.011-0.063-0.027-0.124-0.044-0.185c-0.017-0.063-0.034-0.124-0.057-0.185c-0.024-0.063-0.052-0.122-0.082-0.181   c-0.028-0.056-0.056-0.11-0.089-0.163c-0.034-0.055-0.072-0.107-0.112-0.158c-0.039-0.051-0.079-0.101-0.123-0.149   c-0.043-0.046-0.088-0.088-0.135-0.129c-0.049-0.044-0.099-0.087-0.153-0.126c-0.052-0.038-0.106-0.07-0.162-0.103   c-0.055-0.033-0.111-0.065-0.17-0.092c-0.063-0.029-0.129-0.052-0.195-0.075c-0.04-0.014-0.077-0.034-0.119-0.046   c-0.021-0.006-0.041-0.005-0.062-0.01c-0.065-0.016-0.132-0.024-0.2-0.033c-0.069-0.009-0.138-0.019-0.206-0.021   c-0.02-0.001-0.039-0.006-0.06-0.006h-1.97c-3.049,0-5.53-2.476-5.53-5.52V13.21c0-3.044,2.481-5.52,5.53-5.52H80.9   c3.044,0,5.52,2.476,5.52,5.52V25.54z"/><path d="M79.622,12.958H60.558c-1.104,0-2,0.896-2,2s0.896,2,2,2h19.064c1.104,0,2-0.896,2-2S80.727,12.958,79.622,12.958z"/><path d="M79.622,21.792H60.558c-1.104,0-2,0.896-2,2s0.896,2,2,2h19.064c1.104,0,2-0.896,2-2S80.727,21.792,79.622,21.792z"/></g><text x="0" y="115" fill="#000000" font-size="5px" font-weight="bold" font-family="'Helvetica Neue', Helvetica, Arial-Unicode, Arial, Sans-serif">Created by Maxim Kulikov</text><text x="0" y="120" fill="#000000" font-size="5px" font-weight="bold" font-family="'Helvetica Neue', Helvetica, Arial-Unicode, Arial, Sans-serif">from the Noun Project</text></svg>