<svg xmlns="http://www.w3.org/2000/svg" data-name="Layer 1" viewBox="0 0 64 80" x="0px" y="0px"><title>adaptability-transformation-adjust-change-mutation-revolotion</title><path d="M3,20H19a1,1,0,0,0,1-1V3a1,1,0,0,0-1-1H3A1,1,0,0,0,2,3V19A1,1,0,0,0,3,20ZM4,4H18V18H4Z"/><path d="M59,19.2l2-10a1,1,0,0,0-.43-1l-9-6a1,1,0,0,0-1.1,0l-9,6a1,1,0,0,0-.43,1l2,10a1,1,0,0,0,1,.8H58A1,1,0,0,0,59,19.2ZM44.82,18,43.11,9.46,51,4.2l7.89,5.26L57.18,18Z"/><path d="M3,62H21a1,1,0,0,0,.86-.5,1,1,0,0,0,0-1l-9-16a1,1,0,0,0-1.74,0l-9,16a1,1,0,0,0,0,1A1,1,0,0,0,3,62Zm9-15,7.29,13H4.71Z"/><path d="M52,42A10,10,0,1,0,62,52,10,10,0,0,0,52,42Zm0,18a8,8,0,1,1,8-8A8,8,0,0,1,52,60Z"/><path d="M26.29,6.29l-4,4a1,1,0,0,0,0,1.42l4,4,1.42-1.42L25.41,12H39V10H25.41l2.3-2.29Z"/><path d="M22.29,53.71l4,4,1.42-1.42L25.41,54H39V52H25.41l2.3-2.29-1.42-1.42-4,4A1,1,0,0,0,22.29,53.71Z"/><path d="M53,40V26.41l2.29,2.3,1.42-1.42-4-4a1,1,0,0,0-1.42,0l-4,4,1.42,1.42L51,26.41V40Z"/><path d="M11,40V26.41l2.29,2.3,1.42-1.42-4-4a1,1,0,0,0-1.42,0l-4,4,1.42,1.42L9,26.41V40Z"/><text x="0" y="79" fill="#000000" font-size="5px" font-weight="bold" font-family="'Helvetica Neue', Helvetica, Arial-Unicode, Arial, Sans-serif">Created by Becris</text><text x="0" y="84" fill="#000000" font-size="5px" font-weight="bold" font-family="'Helvetica Neue', Helvetica, Arial-Unicode, Arial, Sans-serif">from the Noun Project</text></svg>