<svg xmlns="http://www.w3.org/2000/svg" xmlns:xlink="http://www.w3.org/1999/xlink" xml:space="preserve" version="1.1" style="shape-rendering:geometricPrecision;text-rendering:geometricPrecision;image-rendering:optimizeQuality;" viewBox="0 0 333 416.25" x="0px" y="0px" fill-rule="evenodd" clip-rule="evenodd"><defs><style type="text/css">
   
    .fil0 {fill:black}
   
  </style></defs><g><path class="fil0" d="M53 174l87 0c9,0 15,7 15,16l0 58 -117 0 0 -58c0,-9 7,-16 15,-16zm198 15l0 -44 45 0 0 44 -45 0zm-16 -14l-28 0 0 52 30 0 0 16 -46 0 0 -68 -18 0 0 -16 18 0 0 -68 46 0 0 16 -30 0 0 52 28 0 0 16zm16 -54l0 -44 45 0 0 44 -45 0zm0 135l0 -44 45 0 0 44 -45 0zm-154 -179c21,0 38,17 38,38 0,21 -17,38 -38,38 -21,0 -38,-17 -38,-38 0,-21 17,-38 38,-38z"/></g><text x="0" y="348" fill="#000000" font-size="5px" font-weight="bold" font-family="'Helvetica Neue', Helvetica, Arial-Unicode, Arial, Sans-serif">Created by emka angelina</text><text x="0" y="353" fill="#000000" font-size="5px" font-weight="bold" font-family="'Helvetica Neue', Helvetica, Arial-Unicode, Arial, Sans-serif">from the Noun Project</text></svg>